<svg width="100" height="57" viewBox="0 0 100 57" fill="none" xmlns="http://www.w3.org/2000/svg">
<path d="M76.9734 48.1569C76.9734 49.0415 76.256 49.7593 75.3714 49.7593C74.4867 49.7593 73.769 49.0419 73.769 48.1569C73.769 47.2718 74.4863 46.5544 75.3714 46.5544C76.2564 46.5544 76.9734 47.2718 76.9734 48.1569ZM35.0488 46.5544C34.1637 46.5544 33.4464 47.2718 33.4464 48.1569C33.4464 49.0415 34.1637 49.7593 35.0488 49.7593C35.9339 49.7593 36.6508 49.0419 36.6508 48.1569C36.6508 47.2718 35.9335 46.5544 35.0488 46.5544ZM53.8149 6.05878C54.7056 6.05878 55.4278 5.33741 55.4278 4.44588V2.16362C55.4278 1.27209 54.7056 0.55072 53.8149 0.55072C52.9242 0.55072 52.202 1.27209 52.202 2.16362V4.44588C52.202 5.33741 52.9242 6.05878 53.8149 6.05878ZM53.8149 15.1866C54.7056 15.1866 55.4278 14.4652 55.4278 13.5737V11.2914C55.4278 10.3999 54.7056 9.67854 53.8149 9.67854C52.9242 9.67854 52.202 10.3999 52.202 11.2914V13.5737C52.202 14.4652 52.9242 15.1866 53.8149 15.1866ZM48.1101 9.48136H50.3923C51.2831 9.48136 52.0052 8.75999 52.0052 7.86846C52.0052 6.97693 51.2831 6.25556 50.3923 6.25556H48.1101C47.2194 6.25556 46.4972 6.97693 46.4972 7.86846C46.4972 8.75999 47.2194 9.48136 48.1101 9.48136ZM57.2375 9.48136H59.5198C60.4105 9.48136 61.1327 8.75999 61.1327 7.86846C61.1327 6.97693 60.4105 6.25556 59.5198 6.25556H57.2375C56.3468 6.25556 55.6246 6.97693 55.6246 7.86846C55.6246 8.75999 56.3468 9.48136 57.2375 9.48136ZM22.5806 8.87097C22.5806 5.75847 25.1133 3.22581 28.2258 3.22581C31.3383 3.22581 33.871 5.75847 33.871 8.87097C33.871 11.9835 31.3383 14.5161 28.2258 14.5161C25.1133 14.5161 22.5806 11.9835 22.5806 8.87097ZM25.8065 8.87097C25.8065 10.2052 26.8915 11.2903 28.2258 11.2903C29.5601 11.2903 30.6452 10.2052 30.6452 8.87097C30.6452 7.53669 29.5601 6.45161 28.2258 6.45161C26.8915 6.45161 25.8065 7.5371 25.8065 8.87097ZM42.2758 23.8822C43.2282 23.8822 44 23.11 44 22.158C44 21.206 43.2278 20.4338 42.2758 20.4338C41.3238 20.4338 40.5516 21.206 40.5516 22.158C40.5516 23.11 41.3234 23.8822 42.2758 23.8822ZM17.3069 46.5544C16.4218 46.5544 15.7044 47.2718 15.7044 48.1569C15.7044 49.0415 16.4218 49.7593 17.3069 49.7593C18.1919 49.7593 18.9089 49.0419 18.9089 48.1569C18.9089 47.2718 18.1915 46.5544 17.3069 46.5544ZM100 20.9677V35.4839V35.5359V48.3871C100 49.2786 99.2778 50 98.3871 50H83.4436C82.6008 53.6871 79.3097 56.4516 75.371 56.4516C71.4331 56.4516 68.1419 53.6871 67.2992 50H43.3516C42.5089 53.6871 39.2177 56.4516 35.279 56.4516C31.3403 56.4516 28.0492 53.6871 27.2065 50H25.5327C24.6899 53.6871 21.3988 56.4516 17.4601 56.4516C13.5222 56.4516 10.231 53.6871 9.38831 50H1.6129C0.722177 50 0 49.2786 0 48.3871C0 40.5464 6.40524 33.923 13.9871 33.923H64.5161V1.6129C64.5161 0.72137 65.2383 0 66.129 0H91.6024C92.2875 0 92.898 0.433066 93.1246 1.07903L99.9093 20.4339C99.9694 20.6056 100 20.7867 100 20.9677ZM93.5484 40.3226H96.7742V37.1488H93.5484V40.3226ZM67.7419 33.923H96.7742V24.1935H83.871C83.6206 24.1935 83.3734 24.1351 83.1496 24.0234L73.4722 19.1847C72.9258 18.9105 72.5806 18.3532 72.5806 17.7419V6.45161C72.5806 5.56008 73.3028 4.83871 74.1936 4.83871H91.0242L90.4589 3.22581H67.7419V33.923ZM76.3992 37.1488H74.3423C69.171 37.6266 65.027 41.6625 64.3835 46.7742H67.2157C67.879 42.8597 71.2706 39.8609 75.3706 39.8609C79.471 39.8609 82.8629 42.8593 83.5262 46.7742H86.3585C85.7153 41.6625 81.5706 37.6266 76.3992 37.1488ZM3.34153 46.7742H9.30524C9.96855 42.8597 13.3601 39.8609 17.4601 39.8609C21.5605 39.8609 24.9524 42.8593 25.6157 46.7742H27.1238C27.7871 42.8597 31.1786 39.8609 35.2794 39.8609C39.3802 39.8609 42.7718 42.8593 43.4351 46.7742H61.1327C61.506 42.9125 63.4234 39.4948 66.2625 37.1488H13.9871C8.67661 37.1488 4.11653 41.4141 3.34153 46.7742ZM22.5294 48.1573C22.5294 45.3613 20.2548 43.0871 17.4601 43.0871C14.6653 43.0871 12.3915 45.3617 12.3915 48.1573C12.3915 50.9516 14.6653 53.2258 17.4601 53.2258C20.2548 53.2258 22.5294 50.9516 22.5294 48.1573ZM40.3484 48.1573C40.3484 45.3613 38.0738 43.0871 35.279 43.0871C32.4843 43.0871 30.2097 45.3617 30.2097 48.1573C30.2097 50.9516 32.4843 53.2258 35.279 53.2258C38.0738 53.2258 40.3484 50.9516 40.3484 48.1573ZM80.4403 48.1573C80.4403 45.3613 78.1657 43.0871 75.371 43.0871C72.5762 43.0871 70.3024 45.3617 70.3024 48.1573C70.3024 50.9516 72.5762 53.2258 75.371 53.2258C78.1657 53.2258 80.4403 50.9516 80.4403 48.1573ZM96.7742 46.7742V43.5484H91.9355C91.0448 43.5484 90.3226 42.827 90.3226 41.9355V37.1488H84.4806C87.3198 39.4948 89.2371 42.9125 89.6105 46.7742H96.7742ZM75.8064 24.1935C75.8064 23.302 75.0843 22.5806 74.1936 22.5806H70.9677C70.077 22.5806 69.3548 23.302 69.3548 24.1935C69.3548 25.0851 70.077 25.8065 70.9677 25.8065H74.1936C75.0843 25.8065 75.8064 25.0851 75.8064 24.1935ZM18.9088 27.2762C19.2237 27.5911 19.6367 27.7488 20.0492 27.7488C20.4617 27.7488 20.8746 27.5911 21.1895 27.2762L22.3298 26.1354L23.4701 27.2758C23.785 27.5907 24.1979 27.7484 24.6104 27.7484C25.0229 27.7484 25.4358 27.5907 25.7508 27.2758C26.3806 26.6459 26.3806 25.625 25.7508 24.9951L24.6104 23.8548L25.7508 22.7145C26.3806 22.0846 26.3806 21.0637 25.7508 20.4338C25.1209 19.804 24.1 19.804 23.4701 20.4338L22.3298 21.5742L21.1895 20.4338C20.5596 19.804 19.5387 19.804 18.9088 20.4338C18.279 21.0637 18.279 22.0846 18.9088 22.7145L20.0492 23.8548L18.9088 24.9951C18.2786 25.6254 18.2786 26.6459 18.9088 27.2762Z" fill="url(#paint0_linear_361_3706)"/>
<defs>
<linearGradient id="paint0_linear_361_3706" x1="16.9651" y1="62.6839" x2="87.628" y2="-7.97898" gradientUnits="userSpaceOnUse">
<stop stop-color="#107EFF"/>
<stop offset="1" stop-color="#8F16FF"/>
</linearGradient>
</defs>
</svg>
