<svg width="78" height="75" viewBox="0 0 78 75" fill="none" xmlns="http://www.w3.org/2000/svg">
<path d="M76.5 62.069H72.6207V30.277L76.0427 26.8548C76.5977 26.3 77.0379 25.6412 77.3382 24.9162C77.6385 24.1912 77.7931 23.4141 77.7931 22.6293C77.7931 21.8445 77.6385 21.0675 77.3382 20.3424C77.0379 19.6174 76.5977 18.9587 76.0427 18.4038L72.3204 14.6814C71.7655 14.1265 71.1067 13.6863 70.3817 13.386C69.6567 13.0856 68.8796 12.931 68.0948 12.931C67.3101 12.931 66.533 13.0856 65.808 13.386C65.083 13.6863 64.4242 14.1265 63.8693 14.6814L62.2759 16.2747V7.75862H66.1552C66.4981 7.75862 66.827 7.62238 67.0695 7.37988C67.312 7.13738 67.4483 6.80847 67.4483 6.46552V3.87931C67.4471 2.85081 67.0381 1.86476 66.3108 1.1375C65.5835 0.410238 64.5975 0.00115512 63.569 0H19.6035C18.575 0.00119781 17.5889 0.410294 16.8617 1.13755C16.1344 1.8648 15.7253 2.85082 15.7242 3.87931V18.1034H11.8448C10.1307 18.1054 8.48726 18.7872 7.27516 19.9993C6.06305 21.2114 5.38125 22.8548 5.37932 24.569V62.069H1.50001C1.15706 62.069 0.828154 62.2052 0.58565 62.4477C0.343146 62.6902 0.206909 63.0191 0.206909 63.3621C0.210375 66.4476 1.43762 69.4057 3.61941 71.5875C5.80119 73.7693 8.75933 74.9965 11.8448 75H66.1552C69.2407 74.9965 72.1988 73.7693 74.3806 71.5875C76.5624 69.4057 77.7896 66.4476 77.7931 63.3621C77.7931 63.0191 77.6569 62.6902 77.4144 62.4477C77.1719 62.2052 76.843 62.069 76.5 62.069ZM67.4483 62.069V35.4495L70.0345 32.8633V62.069H67.4483ZM13.1379 62.069V27.1552C13.1383 26.8123 13.2747 26.4837 13.5171 26.2412C13.7595 25.9988 14.0882 25.8625 14.431 25.8621H15.7242V58.1897C15.7242 58.5326 15.8604 58.8615 16.1029 59.104C16.3454 59.3465 16.6743 59.4828 17.0173 59.4828H60.9828C61.3257 59.4828 61.6546 59.3465 61.8971 59.104C62.1396 58.8615 62.2759 58.5326 62.2759 58.1897V40.6219L64.8621 38.0357V62.069H13.1379ZM47.2526 64.6552L46.3169 66.5266C46.2101 66.7419 46.0452 66.923 45.8407 67.0494C45.6363 67.1757 45.4005 67.2422 45.1602 67.2414H32.8398C32.5995 67.2422 32.3637 67.1757 32.1593 67.0494C31.9549 66.923 31.7899 66.7419 31.6831 66.5266L30.7474 64.6552H47.2526ZM60.9828 21.2253L62.3868 22.6293L49.3448 35.6712L47.9409 34.2672L51.552 30.6561L60.9828 21.2253ZM71.3276 27.9126L62.8114 19.3966L63.569 18.6391L72.0852 27.1552L71.3276 27.9126ZM51.1734 37.5L64.2155 24.4581L66.2661 26.5086L53.2242 39.5505L51.1734 37.5ZM45.2006 33.3499C45.1117 33.4388 45.0244 33.5291 44.9386 33.6207H41.5862V31.0345H47.5161L45.2006 33.3499ZM43.1711 44.7929L45.9312 47.5539L42.1358 48.5884L43.1711 44.7929ZM48.8048 46.7693L43.9557 41.9202L44.6979 39.1983C44.9976 38.1029 45.5004 37.0736 46.1801 36.1639L54.5619 44.5456C53.6522 45.2254 52.6228 45.7282 51.5274 46.0279L48.8048 46.7693ZM56.4569 42.7833L55.0528 41.3793L68.0948 28.3374L69.4988 29.7414L56.4569 42.7833ZM68.0948 15.5172C68.5402 15.516 68.9813 15.6031 69.3928 15.7735C69.8042 15.9439 70.1777 16.1943 70.4918 16.51L74.2141 20.2324C74.8498 20.8681 75.2069 21.7303 75.2069 22.6293C75.2069 23.5283 74.8498 24.3905 74.2141 25.0262L73.9138 25.3264L65.3976 16.8103L65.6979 16.51C66.0119 16.1943 66.3855 15.9439 66.7969 15.7735C67.2084 15.6031 67.6495 15.516 68.0948 15.5172ZM63.569 2.58621C63.9118 2.58659 64.2405 2.72295 64.4829 2.96537C64.7253 3.20779 64.8617 3.53648 64.8621 3.87931V5.17241H62.2759V3.87931C62.2763 3.53648 62.4126 3.20779 62.655 2.96537C62.8975 2.72295 63.2261 2.58659 63.569 2.58621ZM18.3104 3.87931C18.3107 3.53648 18.4471 3.20779 18.6895 2.96537C18.9319 2.72295 19.2606 2.58659 19.6035 2.58621H59.9113C59.7642 3.00144 59.6892 3.43879 59.6897 3.87931V18.8609L54.4342 24.1164C54.342 23.8698 54.1768 23.6571 53.9606 23.5069C53.7443 23.3567 53.4874 23.2761 53.2242 23.2759H35.1207C34.7778 23.2759 34.4488 23.4121 34.2063 23.6546C33.9638 23.8971 33.8276 24.226 33.8276 24.569C33.8276 24.9119 33.9638 25.2408 34.2063 25.4833C34.4488 25.7258 34.7778 25.8621 35.1207 25.8621H52.6886L50.1024 28.4483H40.2931C39.9502 28.4483 39.6213 28.5845 39.3788 28.827C39.1362 29.0695 39 29.3984 39 29.7414V34.9138C39 35.2567 39.1362 35.5857 39.3788 35.8282C39.6213 36.0707 39.9502 36.2069 40.2931 36.2069H43.1085C42.7248 36.9424 42.421 37.7169 42.2021 38.517L42.1267 38.7931H24.7759C24.4329 38.7931 24.104 38.9293 23.8615 39.1718C23.619 39.4143 23.4828 39.7433 23.4828 40.0862C23.4828 40.4292 23.619 40.7581 23.8615 41.0006C24.104 41.2431 24.4329 41.3793 24.7759 41.3793H41.4214L40.7161 43.9655H32.5345C32.1915 43.9655 31.8626 44.1018 31.6201 44.3443C31.3776 44.5868 31.2414 44.9157 31.2414 45.2586C31.2414 45.6016 31.3776 45.9305 31.6201 46.173C31.8626 46.4155 32.1915 46.5517 32.5345 46.5517H40.0107L39.3055 49.1379H24.7759C24.4329 49.1379 24.104 49.2742 23.8615 49.5167C23.619 49.7592 23.4828 50.0881 23.4828 50.431C23.4828 50.774 23.619 51.1029 23.8615 51.3454C24.104 51.5879 24.4329 51.7241 24.7759 51.7241H40.2931C40.4078 51.7241 40.5219 51.7088 40.6326 51.6786L52.2058 48.5221C54.1594 47.9884 55.9403 46.955 57.3729 45.5235L59.6897 43.2081V56.8966H18.3104V3.87931ZM7.96553 24.569C7.96673 23.5405 8.37582 22.5545 9.10308 21.8272C9.83033 21.1 10.8164 20.6909 11.8448 20.6897H15.7242V23.2759H14.431C13.4025 23.277 12.4165 23.6861 11.6892 24.4134C10.962 25.1406 10.5529 26.1267 10.5517 27.1552V62.069H7.96553V24.569ZM66.1552 72.4138H11.8448C9.6689 72.411 7.56653 71.6258 5.92162 70.2013C4.27671 68.7769 3.19899 66.8084 2.88525 64.6552H27.856L29.3699 67.6831C29.6902 68.3291 30.185 68.8724 30.7983 69.2514C31.4116 69.6304 32.1189 69.83 32.8398 69.8276H45.1602C45.8812 69.83 46.5884 69.6304 47.2017 69.2514C47.815 68.8724 48.3098 68.3291 48.6301 67.6831L50.144 64.6552H75.1148C74.801 66.8084 73.7233 68.7769 72.0784 70.2013C70.4335 71.6258 68.3311 72.411 66.1552 72.4138ZM24.7759 20.6897H37.7069C38.0499 20.6897 38.3788 20.5534 38.6213 20.3109C38.8638 20.0684 39 19.7395 39 19.3966V9.05172C39 8.70877 38.8638 8.37987 38.6213 8.13736C38.3788 7.89486 38.0499 7.75862 37.7069 7.75862H24.7759C24.4329 7.75862 24.104 7.89486 23.8615 8.13736C23.619 8.37987 23.4828 8.70877 23.4828 9.05172V19.3966C23.4828 19.7395 23.619 20.0684 23.8615 20.3109C24.104 20.5534 24.4329 20.6897 24.7759 20.6897ZM26.069 10.3448H36.4138V18.1034H26.069V10.3448ZM29.9483 23.2759C30.2912 23.2759 30.6201 23.4121 30.8627 23.6546C31.1052 23.8971 31.2414 24.226 31.2414 24.569C31.2414 24.9119 31.1052 25.2408 30.8627 25.4833C30.6201 25.7258 30.2912 25.8621 29.9483 25.8621H27.3621C27.0191 25.8621 26.6902 25.7258 26.4477 25.4833C26.2052 25.2408 26.069 24.9119 26.069 24.569C26.069 24.226 26.2052 23.8971 26.4477 23.6546C26.6902 23.4121 27.0191 23.2759 27.3621 23.2759H29.9483ZM23.4828 29.7414C23.4828 29.3984 23.619 29.0695 23.8615 28.827C24.104 28.5845 24.4329 28.4483 24.7759 28.4483H35.1207C35.4637 28.4483 35.7926 28.5845 36.0351 28.827C36.2776 29.0695 36.4138 29.3984 36.4138 29.7414C36.4138 30.0843 36.2776 30.4132 36.0351 30.6557C35.7926 30.8982 35.4637 31.0345 35.1207 31.0345H24.7759C24.4329 31.0345 24.104 30.8982 23.8615 30.6557C23.619 30.4132 23.4828 30.0843 23.4828 29.7414ZM23.4828 34.9138C23.4828 34.5708 23.619 34.2419 23.8615 33.9994C24.104 33.7569 24.4329 33.6207 24.7759 33.6207H35.1207C35.4637 33.6207 35.7926 33.7569 36.0351 33.9994C36.2776 34.2419 36.4138 34.5708 36.4138 34.9138C36.4138 35.2567 36.2776 35.5857 36.0351 35.8282C35.7926 36.0707 35.4637 36.2069 35.1207 36.2069H24.7759C24.4329 36.2069 24.104 36.0707 23.8615 35.8282C23.619 35.5857 23.4828 35.2567 23.4828 34.9138ZM23.4828 45.2586C23.4828 44.9157 23.619 44.5868 23.8615 44.3443C24.104 44.1018 24.4329 43.9655 24.7759 43.9655H27.3621C27.705 43.9655 28.0339 44.1018 28.2764 44.3443C28.5189 44.5868 28.6552 44.9157 28.6552 45.2586C28.6552 45.6016 28.5189 45.9305 28.2764 46.173C28.0339 46.4155 27.705 46.5517 27.3621 46.5517H24.7759C24.4329 46.5517 24.104 46.4155 23.8615 46.173C23.619 45.9305 23.4828 45.6016 23.4828 45.2586ZM44.1724 9.05172C44.1724 8.70877 44.3087 8.37987 44.5512 8.13736C44.7937 7.89486 45.1226 7.75862 45.4655 7.75862H53.2242C53.5671 7.75862 53.896 7.89486 54.1385 8.13736C54.381 8.37987 54.5173 8.70877 54.5173 9.05172C54.5173 9.39468 54.381 9.72358 54.1385 9.96609C53.896 10.2086 53.5671 10.3448 53.2242 10.3448H45.4655C45.1226 10.3448 44.7937 10.2086 44.5512 9.96609C44.3087 9.72358 44.1724 9.39468 44.1724 9.05172ZM41.5862 14.2241C41.5862 13.8812 41.7225 13.5523 41.965 13.3098C42.2075 13.0673 42.5364 12.931 42.8793 12.931H53.2242C53.5671 12.931 53.896 13.0673 54.1385 13.3098C54.381 13.5523 54.5173 13.8812 54.5173 14.2241C54.5173 14.5671 54.381 14.896 54.1385 15.1385C53.896 15.381 53.5671 15.5172 53.2242 15.5172H42.8793C42.5364 15.5172 42.2075 15.381 41.965 15.1385C41.7225 14.896 41.5862 14.5671 41.5862 14.2241ZM41.5862 19.3966C41.5862 19.0536 41.7225 18.7247 41.965 18.4822C42.2075 18.2397 42.5364 18.1034 42.8793 18.1034H53.2242C53.5671 18.1034 53.896 18.2397 54.1385 18.4822C54.381 18.7247 54.5173 19.0536 54.5173 19.3966C54.5173 19.7395 54.381 20.0684 54.1385 20.3109C53.896 20.5534 53.5671 20.6897 53.2242 20.6897H42.8793C42.5364 20.6897 42.2075 20.5534 41.965 20.3109C41.7225 20.0684 41.5862 19.7395 41.5862 19.3966Z" fill="url(#paint0_linear_361_3768)"/>
<defs>
<linearGradient id="paint0_linear_361_3768" x1="39" y1="75" x2="39" y2="0" gradientUnits="userSpaceOnUse">
<stop stop-color="#12BEE5"/>
<stop offset="0.5" stop-color="#C071E9"/>
<stop offset="1" stop-color="#F24F5A"/>
</linearGradient>
</defs>
</svg>
