<svg width="72" height="72" viewBox="0 0 72 72" fill="none" xmlns="http://www.w3.org/2000/svg">
<path d="M28.125 2.10938V12.9642H0V2.10938C0 0.945 0.945 0 2.10938 0H26.0156C27.18 0 28.125 0.945 28.125 2.10938Z" fill="#EBD4CE"/>
<path d="M25.4686 33.0468L14.0625 46.8154L3.73359 59.2832C3.32578 59.7768 2.72531 60.0468 2.10938 60.0468C1.87031 60.0468 1.62844 60.0061 1.39359 59.9217C0.558281 59.6207 0 58.8262 0 57.9375V33.0468L6.2325 30.2217H24.3295C24.2845 30.292 25.4686 33.0468 25.4686 33.0468Z" fill="#EBD4CE"/>
<path d="M25.4686 33.0468L14.0625 46.8154V30.2217H24.3295C24.2845 30.292 25.4686 33.0468 25.4686 33.0468Z" fill="#C4B3AF"/>
<path d="M28.125 17.5782V29.0799C28.125 29.5721 27.9534 30.0474 27.6398 30.4257L25.4686 33.047H0V17.5782L5.61516 14.3228H22.7883L28.125 17.5782Z" fill="#B2D7F3"/>
<path d="M28.125 17.5782V29.0799C28.125 29.5721 27.9534 30.0474 27.6398 30.4257L25.4686 33.047H14.0625V14.3228H22.7883L28.125 17.5782Z" fill="#86BFEC"/>
<path d="M28.125 2.10938V17.5781H0V2.10938C0 0.945 0.945 0 2.10938 0H26.0156C27.18 0 28.125 0.945 28.125 2.10938Z" fill="#86BFEC"/>
<path d="M28.125 2.10938V17.5781H14.0625V0H26.0156C27.18 0 28.125 0.945 28.125 2.10938Z" fill="#4894FF"/>
<path d="M45.1589 46.7297L44.4108 47.4764C44.0635 47.8238 43.605 48.0389 43.1156 48.0839L39.728 48.4018L21.9291 50.0724L35.2153 36.7861L45.1589 46.7297Z" fill="#EBD4CE"/>
<path d="M45.159 46.7297L44.4108 47.4764C44.0635 47.8238 43.6051 48.0389 43.1157 48.0839L39.728 48.4017L21.9291 50.0724L5.80788 51.5855C5.74179 51.5925 5.67569 51.5953 5.6096 51.5953C4.7996 51.5953 4.05288 51.1285 3.70272 50.3832C3.32444 49.5788 3.49038 48.6239 4.11897 47.9939L21.7196 30.3933L29.6044 31.1766L35.2154 36.7861L45.159 46.7297Z" fill="#F2E6E6"/>
<path d="M52.5557 32.4015L52.5445 39.3428L44.4107 47.4765C44.0634 47.8238 43.605 48.039 43.1156 48.084L39.7279 48.4018L21.7195 30.3934L32.6573 19.4556L39.0684 19.6707L45.8901 26.1099L52.5557 32.4015Z" fill="#FFDD55"/>
<path d="M52.5557 32.4014L52.5445 39.3427L44.4107 47.4764C44.0634 47.8238 43.605 48.0389 43.1156 48.0839L39.7279 48.4017L31.6631 40.3369L45.8901 26.1099L52.5557 32.4014Z" fill="#FFB555"/>
<path d="M63.4838 28.405L52.5445 39.3428L42.6009 29.3992L32.6573 19.4556L43.5952 8.51641C44.4206 7.69375 45.7538 7.69375 46.5792 8.51641L55.0322 16.9694L63.4838 25.4209C64.3064 26.2464 64.3064 27.5795 63.4838 28.405Z" fill="#FFB555"/>
<path d="M63.4838 28.4049L52.5445 39.3427L42.601 29.3991L55.0322 16.9692L63.4838 25.4208C64.3064 26.2463 64.3064 27.5794 63.4838 28.4049Z" fill="#FF9100"/>
<path d="M39.0684 47.8744V66.8137L34.7344 72H14.0625C6.30844 72 0 65.6916 0 57.9375C0 50.0948 6.37453 43.875 14.0625 43.875H34.7344L39.0684 47.8744Z" fill="#FFF4F4"/>
<path d="M39.0684 57.9375V66.8137L34.7344 72H14.0625C6.30844 72 0 65.6916 0 57.9375H39.0684Z" fill="#F2E6E6"/>
<path d="M14.0625 51.6094C10.5736 51.6094 7.73438 54.4486 7.73438 57.9375C7.73438 61.4264 10.5736 64.2656 14.0625 64.2656C17.5514 64.2656 20.3906 61.4264 20.3906 57.9375C20.3906 54.4486 17.5514 51.6094 14.0625 51.6094ZM14.0625 60.0469C12.8995 60.0469 11.9531 59.1005 11.9531 57.9375C11.9531 56.7745 12.8995 55.8281 14.0625 55.8281C15.2255 55.8281 16.1719 56.7745 16.1719 57.9375C16.1719 59.1005 15.2255 60.0469 14.0625 60.0469Z" fill="#EBD4CE"/>
<path d="M57.2006 48.6337V68.4773L53.0156 72H34.7344V43.875H53.0156L57.2006 48.6337Z" fill="#81E46F"/>
<path d="M57.2006 57.9375V68.4773L53.0156 72H34.7344V57.9375H57.2006Z" fill="#00C27A"/>
<path d="M72 45.9844V69.8906C72 71.055 71.055 72 69.8906 72H53.0156V43.875H69.8906C71.055 43.875 72 44.82 72 45.9844Z" fill="#00C27A"/>
<path d="M72 57.9375V69.8906C72 71.055 71.055 72 69.8906 72H53.0156V57.9375H72Z" fill="#008E59"/>
<path d="M20.3906 57.9375C20.3906 61.4264 17.5514 64.2656 14.0625 64.2656C10.5736 64.2656 7.73438 61.4264 7.73438 57.9375H11.9531C11.9531 59.1005 12.8995 60.0469 14.0625 60.0469C15.2255 60.0469 16.1719 59.1005 16.1719 57.9375H20.3906Z" fill="#C4B3AF"/>
</svg>
