<svg width="800" height="800" viewBox="0 0 800 800" fill="none" xmlns="http://www.w3.org/2000/svg">
<mask id="mask0_9403_4631" style="mask-type:alpha" maskUnits="userSpaceOnUse" x="80" y="46" width="640" height="708">
<rect x="80" y="46.5505" width="640" height="706.899" fill="#782FED"/>
</mask>
<g mask="url(#mask0_9403_4631)">
<path d="M400 450.174L693.241 742.3H107.875L400 450.174Z" fill="#F8B630" stroke="black" stroke-width="22.2997"/>
<path d="M310.845 422.511L103.204 64.4431L668.624 215.947L310.845 422.511Z" fill="#F8B630" stroke="black" stroke-width="22.2997"/>
<path fill-rule="evenodd" clip-rule="evenodd" d="M188.154 661.313C296.029 769.188 470.929 769.188 578.805 661.313C686.68 553.438 686.68 378.537 578.805 270.662L188.154 661.313Z" fill="#4589C9"/>
<path d="M188.154 661.313L180.269 653.429L172.385 661.313L180.269 669.197L188.154 661.313ZM578.805 270.662L586.689 262.778L578.805 254.894L570.921 262.778L578.805 270.662ZM570.921 653.429C467.4 756.95 299.559 756.95 196.038 653.429L180.269 669.197C292.499 781.427 474.459 781.427 586.689 669.197L570.921 653.429ZM570.921 278.546C674.442 382.067 674.442 549.908 570.921 653.429L586.689 669.197C698.918 556.967 698.918 375.007 586.689 262.778L570.921 278.546ZM570.921 262.778L180.269 653.429L196.038 669.197L586.689 278.546L570.921 262.778Z" fill="black"/>
<path d="M400 450.174L592.892 641.951" stroke="black" stroke-width="22.2997"/>
</g>
</svg>
