<svg width="72" height="66" viewBox="0 0 72 66" fill="none" xmlns="http://www.w3.org/2000/svg">
<path d="M37.3318 32.0157L28.3264 45.2264L0.722311 65.5554H0.720947L7.05719 50.2269L8.81926 48.8771L8.65844 46.3533L10.1189 42.8203L11.7365 41.8312L11.7042 38.9854L13.1715 35.4357L15.3682 34.1947L14.7302 31.6651L16.2234 28.0527L18.446 27.0875L17.7605 24.3342L20.3345 18.1072L23.6628 20.5235C28.5215 24.0498 33.0855 27.8887 37.3318 32.0157V32.0157Z" fill="#FFDD55"/>
<path d="M69.601 33.9597C68.9065 34.253 68.5492 34.1481 67.6854 33.8946C66.6088 33.5787 64.982 33.1012 62.8709 33.9921C60.7597 34.8831 60.0605 36.3422 59.5975 37.3078C59.2262 38.0824 59.0725 38.403 58.378 38.6961C57.6836 38.9892 57.3261 38.8842 56.4629 38.6308C55.3862 38.3148 53.7593 37.8374 51.6487 38.7283L53.3266 42.2319C54.021 41.9388 54.3784 42.0438 55.2416 42.2972C55.8576 42.478 56.6535 42.7117 57.6173 42.7117C58.3381 42.7117 59.1528 42.581 60.056 42.1999C62.1672 41.309 62.8664 39.8498 63.3294 38.8842C63.7007 38.1097 63.8544 37.789 64.5488 37.4959C65.2434 37.2027 65.6011 37.3077 66.4644 37.5611C67.541 37.877 69.1677 38.3544 71.2789 37.4635L69.601 33.9597Z" fill="#00CB76"/>
<path d="M35.4184 0C35.0193 0.775334 34.5918 0.959724 33.7403 1.32697C32.6365 1.80292 31.1248 2.45482 30.0857 4.47312C29.0467 6.49142 29.4417 8.00828 29.7304 9.1159C29.953 9.9705 30.0647 10.3995 29.6655 11.1749C29.2665 11.95 28.839 12.1343 27.9875 12.5014C26.8838 12.9772 25.3721 13.629 24.333 15.6471L28.0176 17.3188C28.4165 16.5437 28.844 16.3595 29.6955 15.9924C30.7992 15.5165 32.311 14.8648 33.35 12.8465C34.389 10.8282 33.994 9.31131 33.7053 8.20369C33.4827 7.34909 33.371 6.92013 33.7703 6.14479C34.1694 5.36946 34.5969 5.18507 35.4484 4.81783C36.5522 4.34187 38.0639 3.68998 39.103 1.67167L35.4184 0Z" fill="#8BBBFF"/>
<path d="M39.2388 9.18188H43.3309V13.0233H39.2388V9.18188Z" fill="#1F7099"/>
<path d="M49.469 0.21875H53.5611V4.06021H49.469V0.21875Z" fill="#1F7099"/>
<path d="M55.6072 25.1882H59.6993V28.9867H55.6072V25.1882Z" fill="#284866"/>
<path d="M65.8376 19.4258H69.9298V23.2242H65.8376V19.4258Z" fill="#284866"/>
<path d="M16.7319 9.82227H20.8241V13.5649H16.7319V9.82227Z" fill="#1F7099"/>
<path d="M20.8242 0.21875H24.9163V3.96135H20.8242V0.21875Z" fill="#1F7099"/>
<path d="M57.6533 48.3359H61.7454V52.0785H57.6533V48.3359Z" fill="#284866"/>
<path d="M65.8376 42.4746H69.9298V46.2172H65.8376V42.4746Z" fill="#284866"/>
<path d="M32.4473 36.4909L29.5187 39.1735C25.4279 35.1502 20.988 31.4368 16.2234 28.0525L17.7607 24.334C23.045 28.009 27.9487 32.0694 32.4473 36.4909Z" fill="#FFF69E"/>
<path d="M26.5043 41.9356L23.5757 44.6182C20.3115 41.3696 16.8373 38.3041 13.1721 35.4358L14.7299 31.6648C18.8956 34.8506 22.8268 38.2811 26.5043 41.9356Z" fill="#FFF69E"/>
<path d="M20.6932 47.2586L17.766 49.9412C15.3148 47.4763 12.764 45.0984 10.1191 42.8204L11.7042 38.9854C14.8264 41.6155 17.8273 44.3788 20.6932 47.2586Z" fill="#FFF69E"/>
<path d="M15.102 52.3805L12.1734 55.0644C10.5065 53.4151 8.79876 51.8005 7.05688 50.2267L8.65827 46.3533C10.8598 48.3022 13.0109 50.3125 15.102 52.3805Z" fill="#FFF69E"/>
<path d="M37.3317 32.0156C42.1399 36.6894 46.5376 41.7319 50.4892 47.1061L52.0278 49.1985L45.1255 51.399L41.7829 50.7088L41.1141 52.6778L37.0739 53.966L34.1011 53.5028L33.0184 55.2589L29.0994 56.5082L26.5038 56.2397L24.9925 57.8175L21.3942 58.9647L17.7659 58.4959L17.2216 60.295L0.722168 65.5554" fill="#FFB555"/>
<path d="M45.1259 51.3997L41.1143 52.6776C37.6401 47.8591 33.7662 43.3505 29.5186 39.1736L32.4472 36.491C37.1217 41.0828 41.3571 46.0613 45.1259 51.3997V51.3997Z" fill="#FFDD55"/>
<path d="M37.074 53.9657L33.0187 55.259C30.1037 51.5277 26.9501 47.9743 23.5754 44.6182L26.504 41.9355C30.3056 45.713 33.8371 49.7311 37.074 53.9657V53.9657Z" fill="#FFDD55"/>
<path d="M29.0999 56.5088L24.9928 57.8174C22.6971 55.1041 20.2855 52.4752 17.7661 49.9412L20.6933 47.2585C23.6438 50.2216 26.4496 53.3101 29.0999 56.5088V56.5088Z" fill="#FFDD55"/>
<path d="M21.3943 58.9644L17.2217 60.2948C15.5862 58.5175 13.9016 56.7722 12.1733 55.064L15.1019 52.3801C17.268 54.5198 19.3687 56.7184 21.3943 58.9644Z" fill="#FFDD55"/>
<path d="M70.017 3.02131C69.44 3.54887 69.4059 3.9343 69.3309 4.77814C69.23 5.90112 69.0922 7.43899 67.4185 8.96789C65.7448 10.4955 64.1039 10.5826 62.9049 10.6453C62.0033 10.6927 61.5927 10.7145 61.0143 11.242C60.4373 11.7683 60.4032 12.1537 60.3282 12.9989C60.2273 14.1218 60.0895 15.6597 58.4158 17.1873C56.7422 18.7149 55.1012 18.802 53.9022 18.8648C53.002 18.9121 52.59 18.9339 52.013 19.4615C51.436 19.9877 51.4019 20.3732 51.3256 21.2183C51.226 22.3413 51.0882 23.8791 49.4145 25.4068C47.7409 26.9344 46.0999 27.0214 44.9009 27.0842C44.0007 27.1316 43.5887 27.1533 43.0117 27.6809L42.5493 27.2353L56.8552 13.5646L69.5123 2.53345L70.017 3.02131Z" fill="#DF6666"/>
<path d="M69.5124 2.53373L42.5494 27.2356L40.1582 24.9269C41.8319 23.3992 43.4728 23.3122 44.6718 23.2494C45.5734 23.2021 45.984 23.1803 46.561 22.6527C47.138 22.1264 47.1735 21.741 47.2485 20.8972C47.3494 19.7742 47.4872 18.2363 49.1595 16.7074C50.8332 15.1798 52.4755 15.0927 53.6731 15.03C54.5748 14.9826 54.9867 14.9608 55.5623 14.4333C56.1407 13.907 56.1748 13.5216 56.2498 12.6777C56.3507 11.5548 56.4885 10.0169 58.1622 8.48799C59.8359 6.96037 61.4768 6.8733 62.6758 6.81056C63.5761 6.76318 63.988 6.74141 64.565 6.21385C65.142 5.68757 65.1774 5.30214 65.2525 4.45702C65.3534 3.33404 65.4912 1.79617 67.1648 0.268555L69.5124 2.53373Z" fill="#E69768"/>
</svg>
